<svg xmlns="http://www.w3.org/2000/svg" xmlns:xlink="http://www.w3.org/1999/xlink" viewBox="0 0 350 350"><defs><style>.a{fill:none;}.b{fill:url(#a);}.c{clip-path:url(#b);}.d{fill:#e6e6e6;}.e{fill:#ababab;}.f{fill:#262626;}.g{fill:url(#c);}</style><linearGradient id="a" x1="-73.53" y1="1273.58" x2="-73.53" y2="1354.21" gradientTransform="matrix(2.83, 0, 0, -2.83, 383.44, 3885.41)" gradientUnits="userSpaceOnUse"><stop offset="0" stop-color="#1a1a1a"/><stop offset="1" stop-color="#262626"/></linearGradient><clipPath id="b"><rect class="a" x="100" y="51.5" width="150" height="226" rx="13.1"/></clipPath><linearGradient id="c" x1="140.41" y1="297.95" x2="140.65" y2="278.46" gradientUnits="userSpaceOnUse"><stop offset="0" stop-color="#9d0000" stop-opacity="0.33"/><stop offset="0.01" stop-color="#9e0101" stop-opacity="0.34"/><stop offset="0.18" stop-color="#b00b0b" stop-opacity="0.54"/><stop offset="0.35" stop-color="#bf1313" stop-opacity="0.71"/><stop offset="0.52" stop-color="#cb1a1a" stop-opacity="0.83"/><stop offset="0.67" stop-color="#d31e1e" stop-opacity="0.93"/><stop offset="0.82" stop-color="#d82121" stop-opacity="0.98"/><stop offset="0.95" stop-color="#da2222"/></linearGradient></defs><rect class="b" width="350" height="350"/><g class="c"><rect class="d" x="59.87" y="43" width="223.89" height="262"/><rect class="e" x="53.98" y="34" width="66.37" height="267"/><path class="f" d="M231.08,67.38l5,3.46a1.34,1.34,0,0,1-1,.76c-4,6-11.19,13.11-17.72,18.05a79.59,79.59,0,0,1,8.5,7.78l-5.33,4.66a91.84,91.84,0,0,0-21.07-17.28l4.22-4.33a84,84,0,0,1,8.93,5.72,68.76,68.76,0,0,0,12.87-12.63h-31V67.86h35.81Z"/><path class="f" d="M210.25,125a69.71,69.71,0,0,0-13.73-6.58l2.83-5.23a62.28,62.28,0,0,1,14.07,6.34Zm-12.53,20.69c16.18-5,27.31-14.4,32.88-27.6a36.34,36.34,0,0,0,5.62,3.55c-5.95,13.1-17.43,23.33-33.32,29a1.66,1.66,0,0,1-.81,1.24Z"/><path class="f" d="M229.45,167.7l4.47,1.49a1.71,1.71,0,0,1-.63.77c-.67,14.59-2.11,23.13-3.94,26.11a8.25,8.25,0,0,1-7.68,3.84,43.78,43.78,0,0,1-7.92-.91,43.14,43.14,0,0,0-.43-6.1,46.13,46.13,0,0,0,7.59,1.11,3.12,3.12,0,0,0,3.21-1.92c1.11-2.16,2.21-9.22,2.59-18.29h-11.8c-2.26,9.79-6.15,19-15,26.21a33.75,33.75,0,0,0-5-3.7c8-6.1,11.72-14.26,13.49-22.56H196.86v-5.67h12.77c.48-3.31.57-6.14.81-9.84l7.87.68c-.09.52-.57.91-1.44,1.05-.28,3.07-.43,5.33-.86,8.16H228.3Zm-1.29-1.3a51.66,51.66,0,0,0-5.43-6.86l2.74-2.06a39.48,39.48,0,0,1,5.61,6.81Zm7.72-2.06a48.38,48.38,0,0,0-5.42-6.72l2.69-2a39.75,39.75,0,0,1,5.66,6.63Z"/></g><polygon class="g" points="149.53 277.5 131.53 277.5 131.53 298.5 140.53 292.5 149.53 298.5 149.53 277.5"/></svg>