<svg width="1024" height="1024" viewBox="0 0 1024 1024" fill="none" xmlns="http://www.w3.org/2000/svg">
<g clip-path="url(#clip0_9_19)">
<rect width="1024" height="1024" fill="#FFBCBB"/>
<circle cx="2.88304" cy="85.6182" r="50" transform="rotate(-45 2.88304 85.6182)" fill="#FD6A68" fill-opacity="0.1"/>
<circle cx="121.677" cy="-33.1758" r="50" transform="rotate(-45 121.677 -33.1758)" fill="#FD6A68" fill-opacity="0.1"/>
<circle cx="2.88304" cy="323.206" r="50" transform="rotate(-45 2.88304 323.206)" fill="#FD6A68" fill-opacity="0.1"/>
<circle cx="121.677" cy="204.412" r="50" transform="rotate(-45 121.677 204.412)" fill="#FD6A68" fill-opacity="0.1"/>
<circle cx="240.471" cy="85.6182" r="50" transform="rotate(-45 240.471 85.6182)" fill="#FD6A68" fill-opacity="0.1"/>
<circle cx="359.265" cy="-33.1758" r="50" transform="rotate(-45 359.265 -33.1758)" fill="#FD6A68" fill-opacity="0.1"/>
<circle cx="2.88304" cy="560.794" r="50" transform="rotate(-45 2.88304 560.794)" fill="#FD6A68" fill-opacity="0.1"/>
<circle cx="121.677" cy="442" r="50" transform="rotate(-45 121.677 442)" fill="#FD6A68" fill-opacity="0.1"/>
<circle cx="240.471" cy="323.206" r="50" transform="rotate(-45 240.471 323.206)" fill="#FD6A68" fill-opacity="0.1"/>
<circle cx="359.265" cy="204.412" r="50" transform="rotate(-45 359.265 204.412)" fill="#FD6A68" fill-opacity="0.1"/>
<circle cx="478.059" cy="85.6182" r="50" transform="rotate(-45 478.059 85.6182)" fill="#FD6A68" fill-opacity="0.1"/>
<circle cx="596.853" cy="-33.1758" r="50" transform="rotate(-45 596.853 -33.1758)" fill="#FD6A68" fill-opacity="0.1"/>
<circle cx="2.88304" cy="798.382" r="50" transform="rotate(-45 2.88304 798.382)" fill="#FD6A68" fill-opacity="0.1"/>
<circle cx="121.677" cy="679.588" r="50" transform="rotate(-45 121.677 679.588)" fill="#FD6A68" fill-opacity="0.1"/>
<circle cx="240.471" cy="560.794" r="50" transform="rotate(-45 240.471 560.794)" fill="#FD6A68" fill-opacity="0.1"/>
<circle cx="359.265" cy="442" r="50" transform="rotate(-45 359.265 442)" fill="#FD6A68" fill-opacity="0.1"/>
<circle cx="478.059" cy="323.206" r="50" transform="rotate(-45 478.059 323.206)" fill="#FD6A68" fill-opacity="0.1"/>
<circle cx="596.853" cy="204.412" r="50" transform="rotate(-45 596.853 204.412)" fill="#FD6A68" fill-opacity="0.1"/>
<circle cx="715.647" cy="85.6182" r="50" transform="rotate(-45 715.647 85.6182)" fill="#FD6A68" fill-opacity="0.1"/>
<circle cx="834.441" cy="-33.1758" r="50" transform="rotate(-45 834.441 -33.1758)" fill="#FD6A68" fill-opacity="0.1"/>
<circle cx="2.88304" cy="1035.97" r="50" transform="rotate(-45 2.88304 1035.97)" fill="#FD6A68" fill-opacity="0.1"/>
<circle cx="121.677" cy="917.176" r="50" transform="rotate(-45 121.677 917.176)" fill="#FD6A68" fill-opacity="0.1"/>
<circle cx="240.471" cy="798.382" r="50" transform="rotate(-45 240.471 798.382)" fill="#FD6A68" fill-opacity="0.1"/>
<circle cx="359.265" cy="679.588" r="50" transform="rotate(-45 359.265 679.588)" fill="#FD6A68" fill-opacity="0.1"/>
<circle cx="478.059" cy="560.794" r="50" transform="rotate(-45 478.059 560.794)" fill="#FD6A68" fill-opacity="0.1"/>
<circle cx="596.853" cy="442" r="50" transform="rotate(-45 596.853 442)" fill="#FD6A68" fill-opacity="0.1"/>
<circle cx="715.647" cy="323.206" r="50" transform="rotate(-45 715.647 323.206)" fill="#FD6A68" fill-opacity="0.1"/>
<circle cx="834.441" cy="204.412" r="50" transform="rotate(-45 834.441 204.412)" fill="#FD6A68" fill-opacity="0.1"/>
<circle cx="953.235" cy="85.6182" r="50" transform="rotate(-45 953.235 85.6182)" fill="#FD6A68" fill-opacity="0.1"/>
<circle cx="1072.03" cy="-33.1758" r="50" transform="rotate(-45 1072.03 -33.1758)" fill="#FD6A68" fill-opacity="0.1"/>
<circle cx="240.471" cy="1035.97" r="50" transform="rotate(-45 240.471 1035.97)" fill="#FD6A68" fill-opacity="0.1"/>
<circle cx="359.265" cy="917.176" r="50" transform="rotate(-45 359.265 917.176)" fill="#FD6A68" fill-opacity="0.1"/>
<circle cx="478.059" cy="798.382" r="50" transform="rotate(-45 478.059 798.382)" fill="#FD6A68" fill-opacity="0.1"/>
<circle cx="596.853" cy="679.588" r="50" transform="rotate(-45 596.853 679.588)" fill="#FD6A68" fill-opacity="0.1"/>
<circle cx="715.647" cy="560.794" r="50" transform="rotate(-45 715.647 560.794)" fill="#FD6A68" fill-opacity="0.1"/>
<circle cx="834.441" cy="442" r="50" transform="rotate(-45 834.441 442)" fill="#FD6A68" fill-opacity="0.1"/>
<circle cx="953.235" cy="323.206" r="50" transform="rotate(-45 953.235 323.206)" fill="#FD6A68" fill-opacity="0.1"/>
<circle cx="1072.03" cy="204.412" r="50" transform="rotate(-45 1072.03 204.412)" fill="#FD6A68" fill-opacity="0.1"/>
<circle cx="478.059" cy="1035.97" r="50" transform="rotate(-45 478.059 1035.97)" fill="#FD6A68" fill-opacity="0.1"/>
<circle cx="596.853" cy="917.176" r="50" transform="rotate(-45 596.853 917.176)" fill="#FD6A68" fill-opacity="0.1"/>
<circle cx="715.647" cy="798.382" r="50" transform="rotate(-45 715.647 798.382)" fill="#FD6A68" fill-opacity="0.1"/>
<circle cx="834.441" cy="679.588" r="50" transform="rotate(-45 834.441 679.588)" fill="#FD6A68" fill-opacity="0.1"/>
<circle cx="953.235" cy="560.794" r="50" transform="rotate(-45 953.235 560.794)" fill="#FD6A68" fill-opacity="0.1"/>
<circle cx="1072.03" cy="442" r="50" transform="rotate(-45 1072.03 442)" fill="#FD6A68" fill-opacity="0.1"/>
<circle cx="715.647" cy="1035.97" r="50" transform="rotate(-45 715.647 1035.97)" fill="#FD6A68" fill-opacity="0.1"/>
<circle cx="834.441" cy="917.176" r="50" transform="rotate(-45 834.441 917.176)" fill="#FD6A68" fill-opacity="0.1"/>
<circle cx="953.235" cy="798.382" r="50" transform="rotate(-45 953.235 798.382)" fill="#FD6A68" fill-opacity="0.1"/>
<circle cx="1072.03" cy="679.588" r="50" transform="rotate(-45 1072.03 679.588)" fill="#FD6A68" fill-opacity="0.1"/>
<circle cx="953.235" cy="1035.97" r="50" transform="rotate(-45 953.235 1035.97)" fill="#FD6A68" fill-opacity="0.1"/>
<circle cx="1072.03" cy="917.176" r="50" transform="rotate(-45 1072.03 917.176)" fill="#FD6A68" fill-opacity="0.1"/>
<g filter="url(#filter0_f_9_19)">
<path d="M136.868 605C119.004 574.06 119.004 535.94 136.868 505L284.632 249.064C302.496 218.123 335.508 199.064 371.235 199.064H666.765C702.492 199.064 735.504 218.123 753.368 249.064L901.132 505C918.996 535.94 918.996 574.06 901.132 605L753.368 860.936C735.504 891.877 702.492 910.936 666.765 910.936H371.235C335.508 910.936 302.496 891.877 284.632 860.936L136.868 605Z" fill="#2B3142" fill-opacity="0.25"/>
</g>
<g filter="url(#filter1_d_9_19)">
<ellipse cx="512" cy="938" rx="784" ry="242" fill="#FD6A68"/>
</g>
<path d="M154.868 562C137.004 531.06 137.004 492.94 154.868 462L293.632 221.652C311.496 190.712 344.508 171.652 380.235 171.652H657.765C693.492 171.652 726.504 190.712 744.368 221.652L883.132 462C900.996 492.94 900.996 531.06 883.132 562L744.368 802.348C726.504 833.288 693.492 852.348 657.765 852.348H380.235C344.508 852.348 311.496 833.288 293.632 802.348L154.868 562Z" fill="#2B3142"/>
<path d="M179.868 562C162.004 531.06 162.004 492.94 179.868 462L306.132 243.303C323.996 212.362 357.008 193.303 392.735 193.303H645.265C680.992 193.303 714.004 212.363 731.868 243.303L858.132 462C875.996 492.94 875.996 531.06 858.132 562L731.868 780.697C714.004 811.637 680.992 830.697 645.265 830.697H392.735C357.008 830.697 323.996 811.637 306.132 780.697L179.868 562Z" stroke="white" stroke-width="15" stroke-linecap="round" stroke-dasharray="55 30"/>
<path d="M355.322 670.27H383.008C388.867 670.27 393.311 668.707 396.338 665.582C399.463 662.457 401.025 658.014 401.025 652.252V404.84C401.025 399.078 399.463 394.635 396.338 391.51C393.311 388.287 388.867 386.676 383.008 386.676H355.322C349.463 386.676 344.971 388.287 341.846 391.51C338.818 394.635 337.305 399.078 337.305 404.84V652.252C337.305 658.014 338.818 662.457 341.846 665.582C344.971 668.707 349.463 670.27 355.322 670.27ZM436.182 670.27H495.508C501.367 670.27 505.811 668.707 508.838 665.582C511.963 662.457 513.525 658.014 513.525 652.252V454.791C513.525 449.127 511.963 444.732 508.838 441.607C505.811 438.385 501.367 436.773 495.508 436.773H436.182C430.322 436.773 425.83 438.385 422.705 441.607C419.58 444.732 418.018 449.127 418.018 454.791V652.252C418.018 658.014 419.58 662.457 422.705 665.582C425.83 668.707 430.322 670.27 436.182 670.27ZM450.098 489.068C447.461 489.068 445.264 488.189 443.506 486.432C441.748 484.674 440.869 482.525 440.869 479.986C440.869 477.447 441.748 475.348 443.506 473.688C445.264 471.93 447.461 471.051 450.098 471.051H481.885C484.424 471.051 486.523 471.93 488.184 473.688C489.941 475.348 490.82 477.447 490.82 479.986C490.82 482.525 489.941 484.674 488.184 486.432C486.523 488.189 484.424 489.068 481.885 489.068H450.098ZM450.098 636.139C447.461 636.139 445.264 635.26 443.506 633.502C441.748 631.744 440.869 629.596 440.869 627.057C440.869 624.518 441.748 622.369 443.506 620.611C445.264 618.951 447.461 618.121 450.098 618.121H481.885C484.424 618.121 486.523 618.951 488.184 620.611C489.941 622.369 490.82 624.518 490.82 627.057C490.82 629.596 489.941 631.744 488.184 633.502C486.523 635.26 484.424 636.139 481.885 636.139H450.098ZM548.682 670.27H584.863C590.723 670.27 595.166 668.707 598.193 665.582C601.318 662.457 602.881 658.014 602.881 652.252V364.264C602.881 358.502 601.318 354.059 598.193 350.934C595.166 347.711 590.723 346.1 584.863 346.1H548.682C542.822 346.1 538.33 347.711 535.205 350.934C532.178 354.059 530.664 358.502 530.664 364.264V652.252C530.664 658.014 532.178 662.457 535.205 665.582C538.33 668.707 542.822 670.27 548.682 670.27ZM648.291 671.002L671.875 667.633C677.637 666.852 681.836 664.752 684.473 661.334C687.207 657.916 688.232 653.326 687.549 647.564L659.57 404.547C658.887 398.883 656.836 394.635 653.418 391.803C650.098 388.971 645.508 387.945 639.648 388.727L616.211 392.096C610.449 392.877 606.201 394.977 603.467 398.395C600.83 401.812 599.805 406.354 600.391 412.018L628.516 655.035C629.199 660.797 631.201 665.094 634.521 667.926C637.939 670.758 642.529 671.783 648.291 671.002Z" fill="white"/>
</g>
<defs>
<filter id="filter0_f_9_19" x="23.47" y="99.0636" width="991.06" height="911.873" filterUnits="userSpaceOnUse" color-interpolation-filters="sRGB">
<feFlood flood-opacity="0" result="BackgroundImageFix"/>
<feBlend mode="normal" in="SourceGraphic" in2="BackgroundImageFix" result="shape"/>
<feGaussianBlur stdDeviation="50" result="effect1_foregroundBlur_9_19"/>
</filter>
<filter id="filter1_d_9_19" x="-392" y="576" width="1808" height="724" filterUnits="userSpaceOnUse" color-interpolation-filters="sRGB">
<feFlood flood-opacity="0" result="BackgroundImageFix"/>
<feColorMatrix in="SourceAlpha" type="matrix" values="0 0 0 0 0 0 0 0 0 0 0 0 0 0 0 0 0 0 127 0" result="hardAlpha"/>
<feMorphology radius="20" operator="dilate" in="SourceAlpha" result="effect1_dropShadow_9_19"/>
<feOffset/>
<feGaussianBlur stdDeviation="50"/>
<feComposite in2="hardAlpha" operator="out"/>
<feColorMatrix type="matrix" values="0 0 0 0 0 0 0 0 0 0 0 0 0 0 0 0 0 0 0.25 0"/>
<feBlend mode="normal" in2="BackgroundImageFix" result="effect1_dropShadow_9_19"/>
<feBlend mode="normal" in="SourceGraphic" in2="effect1_dropShadow_9_19" result="shape"/>
</filter>
<clipPath id="clip0_9_19">
<rect width="1024" height="1024" rx="200" fill="white"/>
</clipPath>
</defs>
</svg>
