<svg width="1024" height="1024" viewBox="0 0 1024 1024" fill="none" xmlns="http://www.w3.org/2000/svg">
<path d="M147.868 562C130.004 531.06 130.004 492.94 147.868 462L286.632 221.652C304.496 190.712 337.508 171.652 373.235 171.652H650.765C686.492 171.652 719.504 190.712 737.367 221.652L876.133 462C893.996 492.94 893.996 531.06 876.133 562L737.367 802.348C719.504 833.288 686.492 852.348 650.765 852.348H373.235C337.508 852.348 304.496 833.288 286.632 802.348L147.868 562Z" fill="#2B3142"/>
<path d="M172.868 562C155.004 531.06 155.004 492.94 172.868 462L299.132 243.303C316.996 212.362 350.008 193.303 385.735 193.303H638.265C673.992 193.303 707.004 212.363 724.868 243.303L851.132 462C868.996 492.94 868.996 531.06 851.132 562L724.868 780.697C707.004 811.637 673.992 830.697 638.265 830.697H385.735C350.008 830.697 316.996 811.637 299.132 780.697L172.868 562Z" stroke="white" stroke-width="15" stroke-linecap="round" stroke-dasharray="55 30"/>
<path d="M348.322 670.27H376.008C381.867 670.27 386.311 668.707 389.338 665.582C392.463 662.457 394.025 658.014 394.025 652.252V404.84C394.025 399.078 392.463 394.635 389.338 391.51C386.311 388.287 381.867 386.676 376.008 386.676H348.322C342.463 386.676 337.971 388.287 334.846 391.51C331.818 394.635 330.305 399.078 330.305 404.84V652.252C330.305 658.014 331.818 662.457 334.846 665.582C337.971 668.707 342.463 670.27 348.322 670.27ZM429.182 670.27H488.508C494.367 670.27 498.811 668.707 501.838 665.582C504.963 662.457 506.525 658.014 506.525 652.252V454.791C506.525 449.127 504.963 444.732 501.838 441.607C498.811 438.385 494.367 436.773 488.508 436.773H429.182C423.322 436.773 418.83 438.385 415.705 441.607C412.58 444.732 411.018 449.127 411.018 454.791V652.252C411.018 658.014 412.58 662.457 415.705 665.582C418.83 668.707 423.322 670.27 429.182 670.27ZM443.098 489.068C440.461 489.068 438.264 488.189 436.506 486.432C434.748 484.674 433.869 482.525 433.869 479.986C433.869 477.447 434.748 475.348 436.506 473.688C438.264 471.93 440.461 471.051 443.098 471.051H474.885C477.424 471.051 479.523 471.93 481.184 473.688C482.941 475.348 483.82 477.447 483.82 479.986C483.82 482.525 482.941 484.674 481.184 486.432C479.523 488.189 477.424 489.068 474.885 489.068H443.098ZM443.098 636.139C440.461 636.139 438.264 635.26 436.506 633.502C434.748 631.744 433.869 629.596 433.869 627.057C433.869 624.518 434.748 622.369 436.506 620.611C438.264 618.951 440.461 618.121 443.098 618.121H474.885C477.424 618.121 479.523 618.951 481.184 620.611C482.941 622.369 483.82 624.518 483.82 627.057C483.82 629.596 482.941 631.744 481.184 633.502C479.523 635.26 477.424 636.139 474.885 636.139H443.098ZM541.682 670.27H577.863C583.723 670.27 588.166 668.707 591.193 665.582C594.318 662.457 595.881 658.014 595.881 652.252V364.264C595.881 358.502 594.318 354.059 591.193 350.934C588.166 347.711 583.723 346.1 577.863 346.1H541.682C535.822 346.1 531.33 347.711 528.205 350.934C525.178 354.059 523.664 358.502 523.664 364.264V652.252C523.664 658.014 525.178 662.457 528.205 665.582C531.33 668.707 535.822 670.27 541.682 670.27ZM641.291 671.002L664.875 667.633C670.637 666.852 674.836 664.752 677.473 661.334C680.207 657.916 681.232 653.326 680.549 647.564L652.57 404.547C651.887 398.883 649.836 394.635 646.418 391.803C643.098 388.971 638.508 387.945 632.648 388.727L609.211 392.096C603.449 392.877 599.201 394.977 596.467 398.395C593.83 401.812 592.805 406.354 593.391 412.018L621.516 655.035C622.199 660.797 624.201 665.094 627.521 667.926C630.939 670.758 635.529 671.783 641.291 671.002Z" fill="white"/>
</svg>
