<svg xmlns="http://www.w3.org/2000/svg" xmlns:xlink="http://www.w3.org/1999/xlink" viewBox="0 0 229.78 271"><defs><style>.a{fill:none;}.b{clip-path:url(#a);}.c{fill:#e6e6e6;}.d{fill:#ababab;}.e{fill:#262626;}.f{fill:url(#b);}</style><clipPath id="a" transform="translate(46.02 17.5)"><rect class="a" width="150" height="226" rx="13.1"/></clipPath><linearGradient id="b" x1="86.42" y1="263.95" x2="86.67" y2="244.46" gradientUnits="userSpaceOnUse"><stop offset="0" stop-color="#9d0000" stop-opacity="0.33"/><stop offset="0.01" stop-color="#9e0101" stop-opacity="0.34"/><stop offset="0.18" stop-color="#b00b0b" stop-opacity="0.54"/><stop offset="0.35" stop-color="#bf1313" stop-opacity="0.71"/><stop offset="0.52" stop-color="#cb1a1a" stop-opacity="0.83"/><stop offset="0.67" stop-color="#d31e1e" stop-opacity="0.93"/><stop offset="0.82" stop-color="#d82121" stop-opacity="0.98"/><stop offset="0.95" stop-color="#da2222"/></linearGradient></defs><g class="b"><rect class="c" x="5.88" y="9" width="223.89" height="262"/><rect class="d" width="66.37" height="267"/><path class="e" d="M131.08,15.88l5,3.46a1.34,1.34,0,0,1-1,.76c-4,6-11.19,13.11-17.72,18a79.59,79.59,0,0,1,8.5,7.78l-5.33,4.66A91.84,91.84,0,0,0,99.45,33.31L103.67,29a84,84,0,0,1,8.93,5.72,68.76,68.76,0,0,0,12.87-12.63h-31V16.36h35.81Z" transform="translate(46.02 17.5)"/><path class="e" d="M110.25,73.53A69.71,69.71,0,0,0,96.52,67l2.83-5.23a62.28,62.28,0,0,1,14.07,6.34ZM97.72,94.22c16.18-5,27.31-14.4,32.88-27.6a36.34,36.34,0,0,0,5.62,3.55c-5.95,13.1-17.43,23.33-33.32,29a1.66,1.66,0,0,1-.81,1.24Z" transform="translate(46.02 17.5)"/><path class="e" d="M129.45,116.2l4.47,1.49a1.71,1.71,0,0,1-.63.77c-.67,14.59-2.11,23.13-3.94,26.11a8.25,8.25,0,0,1-7.68,3.84,43.78,43.78,0,0,1-7.92-.91,43.14,43.14,0,0,0-.43-6.1,46.13,46.13,0,0,0,7.59,1.11,3.12,3.12,0,0,0,3.21-1.92c1.11-2.16,2.21-9.22,2.59-18.29h-11.8c-2.26,9.79-6.15,19-15,26.21a33.75,33.75,0,0,0-5-3.7c8-6.1,11.72-14.26,13.49-22.56H96.86v-5.67h12.77c.48-3.31.57-6.14.81-9.84l7.87.68c-.09.52-.57.91-1.44,1-.28,3.07-.43,5.33-.86,8.16H128.3Zm-1.29-1.3a51.66,51.66,0,0,0-5.43-6.86l2.74-2.06a39.48,39.48,0,0,1,5.61,6.81Zm7.72-2.06a48.38,48.38,0,0,0-5.42-6.72l2.69-2a39.75,39.75,0,0,1,5.66,6.63Z" transform="translate(46.02 17.5)"/></g><polygon class="f" points="95.55 243.5 77.55 243.5 77.55 264.5 86.55 258.5 95.55 264.5 95.55 243.5"/></svg>