<?xml version="1.0" standalone="no"?>
<!DOCTYPE svg PUBLIC "-//W3C//DTD SVG 20010904//EN"
 "http://www.w3.org/TR/2001/REC-SVG-20010904/DTD/svg10.dtd">
<svg version="1.0" xmlns="http://www.w3.org/2000/svg"
 width="248.000000pt" height="248.000000pt" viewBox="0 0 248.000000 248.000000"
 preserveAspectRatio="xMidYMid meet">
<metadata>
Created by potrace 1.11, written by Peter Selinger 2001-2013
</metadata>
<g transform="translate(0.000000,248.000000) scale(0.100000,-0.100000)"
fill="#000000" stroke="none">
<path d="M551 2459 c-65 -39 -61 27 -61 -1114 0 -765 3 -1042 12 -1058 31 -59
86 -79 201 -74 47 2 89 2 94 -2 5 -3 9 -31 9 -61 -1 -30 2 -69 5 -87 4 -20 3
-34 -5 -37 -6 -2 -1 -3 11 -3 21 1 26 16 10 28 -5 3 -1 9 8 12 9 4 14 3 11 -2
-3 -5 1 -11 8 -14 8 -3 16 -1 18 5 5 14 38 20 38 7 0 -5 4 -9 10 -9 5 0 7 6 4
14 -3 8 -1 17 4 20 5 3 8 -6 6 -20 -2 -25 11 -36 41 -35 6 1 11 35 12 78 1 43
2 85 2 93 1 13 57 15 449 15 482 0 489 1 527 53 20 27 20 45 23 1067 2 765 -1
1047 -9 1068 -6 15 -26 38 -43 50 l-31 22 -662 1 c-626 2 -663 1 -692 -17z
m428 -2423 c0 -7 -2 -6 -6 2 -2 6 -8 10 -12 8 -4 -3 -8 1 -8 9 0 11 4 12 14 4
7 -6 13 -17 12 -23z"/>
</g>
</svg>
