<svg width="1024" height="1024" viewBox="0 0 1024 1024" fill="none" xmlns="http://www.w3.org/2000/svg">
<g clip-path="url(#clip0_12_784)">
<g clip-path="url(#clip1_12_784)">
<rect y="-0.14386" width="1024" height="1024" fill="#2B3142"/>
<path d="M-74.075 115.372L-64.0681 125.379L8.52352 52.7878L-1.48345 42.7808L-74.075 115.372ZM-19.9389 135.714L-9.93196 145.721L28.1274 107.662L18.1204 97.6551L-19.9389 135.714ZM-59.0646 68.5365L17.9563 145.557L28.4555 135.058L-48.5654 58.0373L-59.0646 68.5365ZM-42.4956 91.0111C-33.2269 111.927 -30.356 138.585 -36.4258 159.419C-32.2426 159.173 -25.1885 159.666 -21.0873 160.486C-15.7557 137.109 -19.7749 109.795 -30.6021 84.8593L-42.4956 91.0111ZM-25.8447 74.8523L-31.8325 86.7459C-7.22516 97.0809 19.9249 101.264 43.2198 95.6865C42.0715 91.2572 41.4973 83.6289 41.9075 79.1176C20.9912 85.7616 -5.25657 83.4649 -25.8447 74.8523Z" fill="#31374A"/>
<path d="M43.3047 -2.00734L53.3117 7.99964L125.903 -64.5919L115.896 -74.5989L43.3047 -2.00734ZM97.4408 18.3347L107.448 28.3417L145.507 -9.71763L135.5 -19.7246L97.4408 18.3347ZM58.3152 -48.8433L135.336 28.1776L145.835 17.6785L68.8143 -59.3424L58.3152 -48.8433ZM74.8841 -26.3686C84.1529 -5.45236 87.0237 21.2056 80.9539 42.0398C85.1372 41.7937 92.1913 42.2858 96.2925 43.1061C101.624 19.7291 97.6049 -7.58499 86.7777 -32.5204L74.8841 -26.3686ZM91.5351 -42.5274L85.5473 -30.6338C110.155 -20.2988 137.305 -16.1155 160.6 -21.6932C159.451 -26.1225 158.877 -33.7508 159.287 -38.2621C138.371 -31.6181 112.123 -33.9148 91.5351 -42.5274Z" fill="#31374A"/>
<path d="M-57.1045 367.102L-47.0975 377.109L25.4941 304.518L15.4871 294.511L-57.1045 367.102ZM-2.96836 387.444L7.03862 397.451L45.0979 359.392L35.091 349.385L-2.96836 387.444ZM-42.094 320.266L34.9269 397.287L45.426 386.788L-31.5949 309.767L-42.094 320.266ZM-25.5251 342.741C-16.2563 363.657 -13.3855 390.315 -19.4553 411.149C-15.272 410.903 -8.21792 411.396 -4.1167 412.216C1.21489 388.839 -2.80431 361.525 -13.6315 336.589L-25.5251 342.741ZM-8.87411 326.582L-14.8619 338.476C9.74542 348.811 36.8955 352.994 60.1904 347.417C59.0421 342.987 58.4679 335.359 58.878 330.848C37.9618 337.492 11.714 335.195 -8.87411 326.582Z" fill="#31374A"/>
<path d="M60.2753 249.723L70.2823 259.73L142.874 187.138L132.867 177.131L60.2753 249.723ZM114.411 270.065L124.418 280.072L162.478 242.012L152.471 232.005L114.411 270.065ZM75.2858 202.887L152.307 279.908L162.806 269.409L85.7849 192.388L75.2858 202.887ZM91.8547 225.361C101.123 246.278 103.994 272.936 97.9245 293.77C102.108 293.524 109.162 294.016 113.263 294.836C118.595 271.459 114.575 244.145 103.748 219.21L91.8547 225.361ZM108.506 209.203L102.518 221.096C127.125 231.431 154.275 235.614 177.57 230.037C176.422 225.607 175.848 217.979 176.258 213.468C155.342 220.112 129.094 217.815 108.506 209.203Z" fill="#31374A"/>
<path d="M177.655 132.343L187.662 142.35L260.254 69.7583L250.247 59.7514L177.655 132.343ZM231.791 152.685L241.798 162.692L279.857 124.633L269.85 114.626L231.791 152.685ZM192.666 85.507L269.686 162.528L280.186 152.029L203.165 75.0079L192.666 85.507ZM209.234 107.982C218.503 128.898 221.374 155.556 215.304 176.39C219.488 176.144 226.542 176.636 230.643 177.456C235.974 154.079 231.955 126.765 221.128 101.83L209.234 107.982ZM225.885 91.8229L219.898 103.716C244.505 114.052 271.655 118.235 294.95 112.657C293.802 108.228 293.227 100.6 293.638 96.0882C272.721 102.732 246.474 100.435 225.885 91.8229Z" fill="#31374A"/>
<path d="M295.035 14.9632L305.042 24.9702L377.633 -47.6214L367.626 -57.6284L295.035 14.9632ZM349.171 35.3053L359.178 45.3123L397.237 7.25293L387.23 -2.75404L349.171 35.3053ZM310.045 -31.8727L387.066 45.1482L397.565 34.6491L320.544 -42.3718L310.045 -31.8727ZM326.614 -9.39802C335.883 11.5182 338.754 38.1761 332.684 59.0103C336.867 58.7642 343.921 59.2564 348.022 60.0766C353.354 36.6997 349.335 9.38557 338.508 -15.5498L326.614 -9.39802ZM343.265 -25.5568L337.277 -13.6633C361.885 -3.32821 389.035 0.855032 412.33 -4.72263C411.181 -9.15195 410.607 -16.7802 411.017 -21.2916C390.101 -14.6476 363.853 -16.9443 343.265 -25.5568Z" fill="#31374A"/>
<path d="M-40.1339 618.832L-30.1269 628.839L42.4647 556.248L32.4577 546.241L-40.1339 618.832ZM14.0022 639.174L24.0092 649.181L62.0685 611.122L52.0615 601.115L14.0022 639.174ZM-25.1234 571.996L51.8975 649.017L62.3966 638.518L-14.6243 561.497L-25.1234 571.996ZM-8.55448 594.471C0.714273 615.387 3.58513 642.045 -2.48468 662.879C1.69857 662.633 8.75266 663.126 12.8539 663.946C18.1855 640.569 14.1663 613.255 3.33905 588.319L-8.55448 594.471ZM8.09647 578.312L2.10869 590.206C26.716 600.541 53.8661 604.724 77.161 599.147C76.0127 594.717 75.4385 587.089 75.8486 582.578C54.9324 589.222 28.6846 586.925 8.09647 578.312Z" fill="#31374A"/>
<path d="M77.2459 501.453L87.2529 511.46L159.844 438.868L149.837 428.861L77.2459 501.453ZM131.382 521.795L141.389 531.802L179.448 493.742L169.441 483.735L131.382 521.795ZM92.2564 454.617L169.277 531.638L179.776 521.139L102.755 444.118L92.2564 454.617ZM108.825 477.091C118.094 498.008 120.965 524.666 114.895 545.5C119.078 545.254 126.132 545.746 130.234 546.566C135.565 523.189 131.546 495.875 120.719 470.94L108.825 477.091ZM125.476 460.933L119.488 472.826C144.096 483.161 171.246 487.344 194.541 481.767C193.392 477.338 192.818 469.709 193.228 465.198C172.312 471.842 146.064 469.545 125.476 460.933Z" fill="#31374A"/>
<path d="M194.626 384.073L204.633 394.08L277.224 321.488L267.217 311.481L194.626 384.073ZM248.762 404.415L258.769 414.422L296.828 376.363L286.821 366.356L248.762 404.415ZM209.636 337.237L286.657 414.258L297.156 403.759L220.135 326.738L209.636 337.237ZM226.205 359.712C235.474 380.628 238.345 407.286 232.275 428.12C236.458 427.874 243.512 428.366 247.613 429.186C252.945 405.809 248.926 378.495 238.098 353.56L226.205 359.712ZM242.856 343.553L236.868 355.446C261.475 365.782 288.625 369.965 311.92 364.387C310.772 359.958 310.198 352.33 310.608 347.818C289.692 354.462 263.444 352.165 242.856 343.553Z" fill="#31374A"/>
<path d="M312.005 266.693L322.012 276.7L394.604 204.109L384.597 194.102L312.005 266.693ZM366.141 287.035L376.148 297.042L414.208 258.983L404.201 248.976L366.141 287.035ZM327.016 219.857L404.037 296.878L414.536 286.379L337.515 209.358L327.016 219.857ZM343.585 242.332C352.853 263.248 355.724 289.906 349.654 310.74C353.838 310.494 360.892 310.986 364.993 311.807C370.325 288.43 366.305 261.116 355.478 236.18L343.585 242.332ZM360.236 226.173L354.248 238.067C378.855 248.402 406.005 252.585 429.3 247.007C428.152 242.578 427.578 234.95 427.988 230.438C407.072 237.082 380.824 234.786 360.236 226.173Z" fill="#31374A"/>
<path d="M429.385 149.314L439.392 159.32L511.984 86.7289L501.977 76.7219L429.385 149.314ZM483.521 169.656L493.528 179.663L531.587 141.603L521.58 131.596L483.521 169.656ZM444.396 102.478L521.416 179.498L531.916 168.999L454.895 91.9785L444.396 102.478ZM460.964 124.952C470.233 145.868 473.104 172.526 467.034 193.361C471.217 193.115 478.272 193.607 482.373 194.427C487.704 171.05 483.685 143.736 472.858 118.8L460.964 124.952ZM477.615 108.793L471.628 120.687C496.235 131.022 523.385 135.205 546.68 129.628C545.532 125.198 544.957 117.57 545.368 113.059C524.451 119.703 498.204 117.406 477.615 108.793Z" fill="#31374A"/>
<path d="M546.765 31.9338L556.772 41.9408L629.363 -30.6508L619.356 -40.6578L546.765 31.9338ZM600.901 52.2758L610.908 62.2828L648.967 24.2235L638.96 14.2165L600.901 52.2758ZM561.775 -14.9021L638.796 62.1188L649.295 51.6196L572.274 -25.4013L561.775 -14.9021ZM578.344 7.57255C587.613 28.4888 590.484 55.1467 584.414 75.9809C588.597 75.7348 595.651 76.227 599.753 77.0472C605.084 53.6703 601.065 26.3561 590.238 1.42072L578.344 7.57255ZM594.995 -8.58626L589.007 3.30728C613.615 13.6423 640.765 17.8256 664.06 12.2479C662.911 7.81862 662.337 0.190351 662.747 -4.32099C641.831 2.32299 615.583 0.0263007 594.995 -8.58626Z" fill="#31374A"/>
<path d="M-23.1633 870.562L-13.1563 880.569L59.4353 807.978L49.4283 797.971L-23.1633 870.562ZM30.9728 890.904L40.9798 900.911L79.0391 862.852L69.0321 852.845L30.9728 890.904ZM-8.15283 823.726L68.8681 900.747L79.3672 890.248L2.34629 813.227L-8.15283 823.726ZM8.4161 846.201C17.6849 867.117 20.5557 893.775 14.4859 914.61C18.6691 914.363 25.7232 914.856 29.8245 915.676C35.156 892.299 31.1369 864.985 20.3096 840.049L8.4161 846.201ZM25.067 830.042L19.0793 841.936C43.6866 852.271 70.8367 856.454 94.1316 850.877C92.9832 846.447 92.4091 838.819 92.8192 834.308C71.903 840.952 45.6552 838.655 25.067 830.042Z" fill="#31374A"/>
<path d="M94.2165 753.183L104.223 763.19L176.815 690.598L166.808 680.591L94.2165 753.183ZM148.353 773.525L158.36 783.532L196.419 745.472L186.412 735.465L148.353 773.525ZM109.227 706.347L186.248 783.368L196.747 772.869L119.726 695.848L109.227 706.347ZM125.796 728.821C135.065 749.738 137.935 776.396 131.866 797.23C136.049 796.984 143.103 797.476 147.204 798.296C152.536 774.919 148.517 747.605 137.689 722.67L125.796 728.821ZM142.447 712.663L136.459 724.556C161.066 734.891 188.216 739.075 211.511 733.497C210.363 729.068 209.789 721.439 210.199 716.928C189.283 723.572 163.035 721.275 142.447 712.663Z" fill="#31374A"/>
<path d="M211.596 635.803L221.603 645.81L294.195 573.218L284.188 563.211L211.596 635.803ZM265.732 656.145L275.739 666.152L313.798 628.093L303.792 618.086L265.732 656.145ZM226.607 588.967L303.627 665.988L314.127 655.489L237.106 578.468L226.607 588.967ZM243.176 611.442C252.444 632.358 255.315 659.016 249.245 679.85C253.429 679.604 260.483 680.096 264.584 680.916C269.915 657.539 265.896 630.225 255.069 605.29L243.176 611.442ZM259.826 595.283L253.839 607.176C278.446 617.512 305.596 621.695 328.891 616.117C327.743 611.688 327.168 604.06 327.579 599.548C306.662 606.192 280.415 603.895 259.826 595.283Z" fill="#31374A"/>
<path d="M328.976 518.423L338.983 528.43L411.574 455.839L401.567 445.832L328.976 518.423ZM383.112 538.765L393.119 548.772L431.178 510.713L421.171 500.706L383.112 538.765ZM343.986 471.587L421.007 548.608L431.506 538.109L354.485 461.088L343.986 471.587ZM360.555 494.062C369.824 514.978 372.695 541.636 366.625 562.47C370.808 562.224 377.862 562.716 381.964 563.537C387.295 540.16 383.276 512.846 372.449 487.91L360.555 494.062ZM377.206 477.903L371.218 489.797C395.826 500.132 422.976 504.315 446.271 498.737C445.122 494.308 444.548 486.68 444.958 482.168C424.042 488.812 397.794 486.516 377.206 477.903Z" fill="#31374A"/>
<path d="M446.356 401.044L456.363 411.051L528.954 338.459L518.947 328.452L446.356 401.044ZM500.492 421.386L510.499 431.393L548.558 393.333L538.551 383.326L500.492 421.386ZM461.366 354.208L538.387 431.229L548.886 420.729L471.865 343.708L461.366 354.208ZM477.935 376.682C487.204 397.599 490.075 424.256 484.005 445.091C488.188 444.845 495.242 445.337 499.343 446.157C504.675 422.78 500.656 395.466 489.829 370.53L477.935 376.682ZM494.586 360.523L488.598 372.417C513.206 382.752 540.356 386.935 563.651 381.358C562.502 376.928 561.928 369.3 562.338 364.789C541.422 371.433 515.174 369.136 494.586 360.523Z" fill="#31374A"/>
<path d="M563.735 283.664L573.742 293.671L646.334 221.079L636.327 211.072L563.735 283.664ZM617.871 304.006L627.878 314.013L665.938 275.954L655.931 265.947L617.871 304.006ZM578.746 236.828L655.767 313.849L666.266 303.35L589.245 226.329L578.746 236.828ZM595.315 259.303C604.583 280.219 607.454 306.877 601.384 327.711C605.568 327.465 612.622 327.957 616.723 328.777C622.055 305.4 618.035 278.086 607.208 253.151L595.315 259.303ZM611.966 243.144L605.978 255.037C630.585 265.372 657.735 269.556 681.03 263.978C679.882 259.549 679.308 251.92 679.718 247.409C658.802 254.053 632.554 251.756 611.966 243.144Z" fill="#31374A"/>
<path d="M681.115 166.284L691.122 176.291L763.714 103.699L753.707 93.6925L681.115 166.284ZM735.251 186.626L745.258 196.633L783.317 158.574L773.31 148.567L735.251 186.626ZM696.125 119.448L773.146 196.469L783.646 185.97L706.625 108.949L696.125 119.448ZM712.694 141.923C721.963 162.839 724.834 189.497 718.764 210.331C722.947 210.085 730.002 210.577 734.103 211.397C739.434 188.021 735.415 160.706 724.588 135.771L712.694 141.923ZM729.345 125.764L723.358 137.658C747.965 147.993 775.115 152.176 798.41 146.598C797.262 142.169 796.687 134.541 797.098 130.029C776.181 136.673 749.933 134.377 729.345 125.764Z" fill="#31374A"/>
<path d="M798.495 48.9044L808.502 58.9113L881.093 -13.6803L871.086 -23.6872L798.495 48.9044ZM852.631 69.2464L862.638 79.2534L900.697 41.1941L890.69 31.1871L852.631 69.2464ZM813.505 2.06842L890.526 79.0893L901.025 68.5902L824.004 -8.4307L813.505 2.06842ZM830.074 24.5431C839.343 45.4593 842.214 72.1173 836.144 92.9514C840.327 92.7054 847.381 93.1975 851.483 94.0178C856.814 70.6408 852.795 43.3267 841.968 18.3913L830.074 24.5431ZM846.725 8.3843L840.737 20.2778C865.345 30.6129 892.495 34.7962 915.79 29.2185C914.641 24.7892 914.067 17.1609 914.477 12.6496C893.561 19.2935 867.313 16.9969 846.725 8.3843Z" fill="#31374A"/>
<path d="M111.187 1004.91L121.194 1014.92L193.785 942.328L183.779 932.321L111.187 1004.91ZM165.323 1025.25L175.33 1035.26L213.389 997.202L203.382 987.195L165.323 1025.25ZM126.197 958.077L203.218 1035.1L213.717 1024.6L136.697 947.578L126.197 958.077ZM142.766 980.551C152.035 1001.47 154.906 1028.13 148.836 1048.96C153.019 1048.71 160.073 1049.21 164.175 1050.03C169.506 1026.65 165.487 999.335 154.66 974.4L142.766 980.551ZM159.417 964.393L153.429 976.286C178.037 986.621 205.187 990.805 228.482 985.227C227.333 980.798 226.759 973.169 227.169 968.658C206.253 975.302 180.005 973.005 159.417 964.393Z" fill="#31374A"/>
<path d="M228.567 887.533L238.574 897.54L311.165 824.948L301.158 814.941L228.567 887.533ZM282.703 907.875L292.71 917.882L330.769 879.823L320.762 869.816L282.703 907.875ZM243.577 840.697L320.598 917.718L331.097 907.219L254.076 830.198L243.577 840.697ZM260.146 863.172C269.415 884.088 272.286 910.746 266.216 931.58C270.399 931.334 277.453 931.826 281.554 932.646C286.886 909.269 282.867 881.955 272.04 857.02L260.146 863.172ZM276.797 847.013L270.809 858.906C295.417 869.242 322.567 873.425 345.862 867.847C344.713 863.418 344.139 855.79 344.549 851.278C323.633 857.922 297.385 855.626 276.797 847.013Z" fill="#31374A"/>
<path d="M345.946 770.153L355.953 780.16L428.545 707.569L418.538 697.562L345.946 770.153ZM400.083 790.495L410.09 800.502L448.149 762.443L438.142 752.436L400.083 790.495ZM360.957 723.317L437.978 800.338L448.477 789.839L371.456 712.818L360.957 723.317ZM377.526 745.792C386.795 766.708 389.665 793.366 383.596 814.2C387.779 813.954 394.833 814.446 398.934 815.267C404.266 791.89 400.247 764.576 389.419 739.64L377.526 745.792ZM394.177 729.633L388.189 741.527C412.796 751.862 439.946 756.045 463.241 750.467C462.093 746.038 461.519 738.41 461.929 733.898C441.013 740.542 414.765 738.246 394.177 729.633Z" fill="#31374A"/>
<path d="M463.326 652.774L473.333 662.781L545.925 590.189L535.918 580.182L463.326 652.774ZM517.462 673.116L527.469 683.123L565.529 645.063L555.522 635.056L517.462 673.116ZM478.337 605.938L555.358 682.959L565.857 672.459L488.836 595.438L478.337 605.938ZM494.906 628.412C504.174 649.329 507.045 675.986 500.975 696.821C505.159 696.575 512.213 697.067 516.314 697.887C521.646 674.51 517.626 647.196 506.799 622.26L494.906 628.412ZM511.557 612.253L505.569 624.147C530.176 634.482 557.326 638.665 580.621 633.088C579.473 628.658 578.899 621.03 579.309 616.519C558.392 623.163 532.145 620.866 511.557 612.253Z" fill="#31374A"/>
<path d="M580.706 535.394L590.713 545.401L663.304 472.809L653.297 462.802L580.706 535.394ZM634.842 555.736L644.849 565.743L682.908 527.684L672.901 517.677L634.842 555.736ZM595.716 488.558L672.737 565.579L683.236 555.08L606.215 478.059L595.716 488.558ZM612.285 511.033C621.554 531.949 624.425 558.607 618.355 579.441C622.538 579.195 629.592 579.687 633.694 580.507C639.025 557.13 635.006 529.816 624.179 504.881L612.285 511.033ZM628.936 494.874L622.948 506.767C647.556 517.102 674.706 521.286 698.001 515.708C696.852 511.279 696.278 503.65 696.688 499.139C675.772 505.783 649.524 503.486 628.936 494.874Z" fill="#31374A"/>
<path d="M698.086 418.014L708.093 428.021L780.684 355.429L770.677 345.422L698.086 418.014ZM752.222 438.356L762.229 448.363L800.288 410.304L790.281 400.297L752.222 438.356ZM713.096 371.178L790.117 448.199L800.616 437.7L723.595 360.679L713.096 371.178ZM729.665 393.653C738.934 414.569 741.805 441.227 735.735 462.061C739.918 461.815 746.972 462.307 751.073 463.127C756.405 439.751 752.386 412.436 741.559 387.501L729.665 393.653ZM746.316 377.494L740.328 389.388C764.935 399.723 792.086 403.906 815.38 398.328C814.232 393.899 813.658 386.271 814.068 381.759C793.152 388.403 766.904 386.107 746.316 377.494Z" fill="#31374A"/>
<path d="M815.465 300.634L825.472 310.641L898.064 238.05L888.057 228.043L815.465 300.634ZM869.601 320.976L879.608 330.983L917.668 292.924L907.661 282.917L869.601 320.976ZM830.476 253.798L907.497 330.819L917.996 320.32L840.975 243.299L830.476 253.798ZM847.045 276.273C856.313 297.189 859.184 323.847 853.114 344.681C857.298 344.435 864.352 344.928 868.453 345.748C873.785 322.371 869.765 295.057 858.938 270.121L847.045 276.273ZM863.696 260.114L857.708 272.008C882.315 282.343 909.465 286.526 932.76 280.948C931.612 276.519 931.038 268.891 931.448 264.38C910.532 271.024 884.284 268.727 863.696 260.114Z" fill="#31374A"/>
<path d="M932.845 183.255L942.852 193.262L1015.44 120.67L1005.44 110.663L932.845 183.255ZM986.981 203.597L996.988 213.604L1035.05 175.544L1025.04 165.537L986.981 203.597ZM947.856 136.419L1024.88 213.44L1035.38 202.94L958.355 125.92L947.856 136.419ZM964.425 158.893C973.693 179.81 976.564 206.468 970.494 227.302C974.678 227.056 981.732 227.548 985.833 228.368C991.164 204.991 987.145 177.677 976.318 152.742L964.425 158.893ZM981.075 142.735L975.088 154.628C999.695 164.963 1026.85 169.146 1050.14 163.569C1048.99 159.139 1048.42 151.511 1048.83 147C1027.91 153.644 1001.66 151.347 981.075 142.735Z" fill="#31374A"/>
<path d="M362.917 1021.88L372.924 1031.89L445.516 959.299L435.509 949.292L362.917 1021.88ZM417.053 1042.23L427.06 1052.23L465.119 1014.17L455.112 1004.17L417.053 1042.23ZM377.927 975.047L454.948 1052.07L465.448 1041.57L388.427 964.548L377.927 975.047ZM394.496 997.522C403.765 1018.44 406.636 1045.1 400.566 1065.93C404.749 1065.68 411.804 1066.18 415.905 1067C421.236 1043.62 417.217 1016.31 406.39 991.37L394.496 997.522ZM411.147 981.363L405.16 993.257C429.767 1003.59 456.917 1007.78 480.212 1002.2C479.064 997.768 478.489 990.14 478.9 985.628C457.983 992.272 431.735 989.976 411.147 981.363Z" fill="#31374A"/>
<path d="M480.297 904.504L490.304 914.51L562.895 841.919L552.888 831.912L480.297 904.504ZM534.433 924.846L544.44 934.853L582.499 896.793L572.492 886.786L534.433 924.846ZM495.307 857.668L572.328 934.688L582.827 924.189L505.806 847.168L495.307 857.668ZM511.876 880.142C521.145 901.058 524.016 927.716 517.946 948.551C522.129 948.305 529.183 948.797 533.284 949.617C538.616 926.24 534.597 898.926 523.77 873.99L511.876 880.142ZM528.527 863.983L522.539 875.877C547.147 886.212 574.297 890.395 597.592 884.818C596.443 880.388 595.869 872.76 596.279 868.249C575.363 874.893 549.115 872.596 528.527 863.983Z" fill="#31374A"/>
<path d="M597.676 787.124L607.683 797.131L680.275 724.539L670.268 714.532L597.676 787.124ZM651.813 807.466L661.82 817.473L699.879 779.414L689.872 769.407L651.813 807.466ZM612.687 740.288L689.708 817.309L700.207 806.81L623.186 729.789L612.687 740.288ZM629.256 762.763C638.525 783.679 641.395 810.337 635.326 831.171C639.509 830.925 646.563 831.417 650.664 832.237C655.996 808.86 651.977 781.546 641.149 756.611L629.256 762.763ZM645.907 746.604L639.919 758.497C664.526 768.832 691.676 773.016 714.971 767.438C713.823 763.009 713.249 755.38 713.659 750.869C692.743 757.513 666.495 755.216 645.907 746.604Z" fill="#31374A"/>
<path d="M715.056 669.744L725.063 679.751L797.655 607.16L787.648 597.153L715.056 669.744ZM769.192 690.086L779.199 700.093L817.259 662.034L807.252 652.027L769.192 690.086ZM730.067 622.908L807.088 699.929L817.587 689.43L740.566 612.409L730.067 622.908ZM746.636 645.383C755.904 666.299 758.775 692.957 752.705 713.791C756.889 713.545 763.943 714.037 768.044 714.858C773.376 691.481 769.356 664.166 758.529 639.231L746.636 645.383ZM763.287 629.224L757.299 641.118C781.906 651.453 809.056 655.636 832.351 650.058C831.203 645.629 830.629 638.001 831.039 633.489C810.122 640.133 783.875 637.837 763.287 629.224Z" fill="#31374A"/>
<path d="M832.436 552.364L842.443 562.371L915.035 489.78L905.028 479.773L832.436 552.364ZM886.572 572.706L896.579 582.713L934.638 544.654L924.631 534.647L886.572 572.706ZM847.446 505.528L924.467 582.549L934.966 572.05L857.946 495.029L847.446 505.528ZM864.015 528.003C873.284 548.919 876.155 575.577 870.085 596.411C874.268 596.165 881.322 596.658 885.424 597.478C890.755 574.101 886.736 546.787 875.909 521.851L864.015 528.003ZM880.666 511.844L874.679 523.738C899.286 534.073 926.436 538.256 949.731 532.679C948.582 528.249 948.008 520.621 948.418 516.11C927.502 522.754 901.254 520.457 880.666 511.844Z" fill="#31374A"/>
<path d="M949.816 434.985L959.823 444.992L1032.41 372.4L1022.41 362.393L949.816 434.985ZM1003.95 455.327L1013.96 465.334L1052.02 427.274L1042.01 417.267L1003.95 455.327ZM964.826 388.149L1041.85 465.17L1052.35 454.671L975.325 377.65L964.826 388.149ZM981.395 410.623C990.664 431.54 993.535 458.198 987.465 479.032C991.648 478.786 998.702 479.278 1002.8 480.098C1008.13 456.721 1004.12 429.407 993.289 404.472L981.395 410.623ZM998.046 394.465L992.058 406.358C1016.67 416.693 1043.82 420.876 1067.11 415.299C1065.96 410.869 1065.39 403.241 1065.8 398.73C1044.88 405.374 1018.63 403.077 998.046 394.465Z" fill="#31374A"/>
<path d="M614.647 1038.85L624.654 1048.86L697.246 976.269L687.239 966.262L614.647 1038.85ZM668.783 1059.2L678.79 1069.2L716.849 1031.14L706.842 1021.14L668.783 1059.2ZM629.657 992.018L706.678 1069.04L717.177 1058.54L640.157 981.519L629.657 992.018ZM646.226 1014.49C655.495 1035.41 658.366 1062.07 652.296 1082.9C656.479 1082.65 663.534 1083.15 667.635 1083.97C672.966 1060.59 668.947 1033.28 658.12 1008.34L646.226 1014.49ZM662.877 998.334L656.89 1010.23C681.497 1020.56 708.647 1024.75 731.942 1019.17C730.794 1014.74 730.219 1007.11 730.629 1002.6C709.713 1009.24 683.465 1006.95 662.877 998.334Z" fill="#31374A"/>
<path d="M732.027 921.474L742.034 931.481L814.625 858.889L804.618 848.883L732.027 921.474ZM786.163 941.816L796.17 951.823L834.229 913.764L824.222 903.757L786.163 941.816ZM747.037 874.638L824.058 951.659L834.557 941.16L757.536 864.139L747.037 874.638ZM763.606 897.113C772.875 918.029 775.746 944.687 769.676 965.521C773.859 965.275 780.913 965.767 785.015 966.588C790.346 943.211 786.327 915.896 775.5 890.961L763.606 897.113ZM780.257 880.954L774.269 892.848C798.877 903.183 826.027 907.366 849.322 901.788C848.173 897.359 847.599 889.731 848.009 885.219C827.093 891.863 800.845 889.567 780.257 880.954Z" fill="#31374A"/>
<path d="M849.406 804.094L859.413 814.101L932.005 741.51L921.998 731.503L849.406 804.094ZM903.543 824.436L913.549 834.443L951.609 796.384L941.602 786.377L903.543 824.436ZM864.417 757.258L941.438 834.279L951.937 823.78L874.916 746.759L864.417 757.258ZM880.986 779.733C890.255 800.649 893.125 827.307 887.056 848.141C891.239 847.895 898.293 848.388 902.394 849.208C907.726 825.831 903.707 798.517 892.879 773.581L880.986 779.733ZM897.637 763.574L891.649 775.468C916.256 785.803 943.406 789.986 966.701 784.409C965.553 779.979 964.979 772.351 965.389 767.84C944.473 774.484 918.225 772.187 897.637 763.574Z" fill="#31374A"/>
<path d="M966.786 686.715L976.793 696.722L1049.38 624.13L1039.38 614.123L966.786 686.715ZM1020.92 707.057L1030.93 717.064L1068.99 679.004L1058.98 668.997L1020.92 707.057ZM981.797 639.879L1058.82 716.9L1069.32 706.4L992.296 629.38L981.797 639.879ZM998.365 662.353C1007.63 683.27 1010.51 709.928 1004.44 730.762C1008.62 730.516 1015.67 731.008 1019.77 731.828C1025.11 708.451 1021.09 681.137 1010.26 656.202L998.365 662.353ZM1015.02 646.195L1009.03 658.088C1033.64 668.423 1060.79 672.606 1084.08 667.029C1082.93 662.599 1082.36 654.971 1082.77 650.46C1061.85 657.104 1035.6 654.807 1015.02 646.195Z" fill="#31374A"/>
<path d="M866.377 1055.82L876.384 1065.83L948.976 993.24L938.969 983.233L866.377 1055.82ZM920.513 1076.17L930.52 1086.17L968.58 1048.11L958.573 1038.11L920.513 1076.17ZM881.388 1008.99L958.408 1086.01L968.908 1075.51L891.887 998.489L881.388 1008.99ZM897.957 1031.46C907.225 1052.38 910.096 1079.04 904.026 1099.87C908.21 1099.63 915.264 1100.12 919.365 1100.94C924.696 1077.56 920.677 1050.25 909.85 1025.31L897.957 1031.46ZM914.607 1015.3L908.62 1027.2C933.227 1037.53 960.377 1041.72 983.672 1036.14C982.524 1031.71 981.949 1024.08 982.36 1019.57C961.443 1026.21 935.196 1023.92 914.607 1015.3Z" fill="#31374A"/>
<path d="M983.757 938.445L993.764 948.452L1066.36 875.86L1056.35 865.853L983.757 938.445ZM1037.89 958.787L1047.9 968.794L1085.96 930.734L1075.95 920.727L1037.89 958.787ZM998.767 891.609L1075.79 968.63L1086.29 958.131L1009.27 881.11L998.767 891.609ZM1015.34 914.083C1024.6 935 1027.48 961.658 1021.41 982.492C1025.59 982.246 1032.64 982.738 1036.74 983.558C1042.08 960.181 1038.06 932.867 1027.23 907.932L1015.34 914.083ZM1031.99 897.925L1026 909.818C1050.61 920.153 1077.76 924.336 1101.05 918.759C1099.9 914.33 1099.33 906.701 1099.74 902.19C1078.82 908.834 1052.58 906.537 1031.99 897.925Z" fill="#31374A"/>
</g>
<g filter="url(#filter0_d_12_784)">
<path d="M450.667 731.897C450.667 737.724 450.514 743.244 450.207 748.457C449.9 753.977 448.827 758.884 446.987 763.177C445.454 767.47 443 770.844 439.627 773.297C436.56 776.057 432.114 777.437 426.287 777.437C419.54 777.437 413.867 774.984 409.267 770.077C404.974 765.477 402.52 757.197 401.907 745.237C401.6 737.57 401.14 728.217 400.527 717.177C399.914 706.137 399.3 694.484 398.687 682.217C398.38 669.95 397.92 657.684 397.307 645.417C397 633.15 396.847 621.804 396.847 611.377C396.847 575.497 399.3 545.904 404.207 522.597C409.42 499.29 417.087 480.737 427.207 466.937C437.327 453.137 449.747 443.477 464.467 437.957C479.494 432.437 496.82 429.677 516.447 429.677C532.087 429.677 546.807 432.13 560.607 437.037C574.407 441.637 586.367 448.997 596.487 459.117C606.914 468.93 615.194 481.81 621.327 497.757C627.46 513.397 630.527 532.257 630.527 554.337C630.527 572.737 627.307 588.99 620.867 603.097C614.734 617.204 606.147 629.164 595.107 638.977C584.067 648.484 571.034 655.844 556.007 661.057C541.287 665.964 525.494 668.417 508.627 668.417C494.214 668.417 481.18 665.504 469.527 659.677C458.18 653.544 450.054 646.95 445.147 639.897C446.68 657.07 447.907 673.017 448.827 687.737C450.054 702.457 450.667 717.177 450.667 731.897ZM514.147 475.677C503.414 475.677 494.06 477.517 486.087 481.197C478.42 484.877 472.134 489.937 467.227 496.377C462.32 502.817 458.64 510.484 456.187 519.377C454.04 528.27 452.967 537.93 452.967 548.357C452.967 558.477 453.887 568.137 455.727 577.337C457.874 586.23 461.247 594.05 465.847 600.797C470.447 607.544 476.58 612.91 484.247 616.897C491.914 620.884 501.267 622.877 512.307 622.877C520.894 622.877 529.174 621.804 537.147 619.657C545.12 617.204 552.174 613.217 558.307 607.697C564.747 602.177 569.807 594.817 573.487 585.617C577.474 576.417 579.467 564.917 579.467 551.117C579.467 537.01 577.474 525.204 573.487 515.697C569.807 505.884 564.747 498.064 558.307 492.237C552.174 486.104 545.12 481.81 537.147 479.357C529.48 476.904 521.814 475.677 514.147 475.677ZM722.006 364.817C722.006 383.217 721.393 402.537 720.166 422.777C719.246 442.71 718.019 462.184 716.486 481.197C720.473 472.917 725.686 465.864 732.126 460.037C738.566 453.904 745.619 448.997 753.286 445.317C761.259 441.637 769.539 438.877 778.126 437.037C786.713 435.197 794.993 434.277 802.966 434.277C816.766 434.277 829.646 436.884 841.606 442.097C853.873 447.004 864.453 454.364 873.346 464.177C882.546 473.684 889.599 485.644 894.506 500.057C899.719 514.164 902.326 530.417 902.326 548.817C902.326 566.604 899.719 582.857 894.506 597.577C889.293 612.297 881.473 625.024 871.046 635.757C860.926 646.184 848.199 654.31 832.866 660.137C817.839 665.964 800.513 668.877 780.886 668.877C754.206 668.877 733.199 663.51 717.866 652.777C702.839 642.044 691.646 627.784 684.286 609.997C676.926 591.904 672.326 571.204 670.486 547.897C668.953 524.59 668.186 500.21 668.186 474.757C668.186 448.997 668.646 425.69 669.566 404.837C670.486 383.984 671.866 367.117 673.706 354.237C675.546 342.584 678.613 334.304 682.906 329.397C687.199 324.49 692.873 322.037 699.926 322.037C705.139 322.037 709.279 323.264 712.346 325.717C715.413 327.864 717.559 330.93 718.786 334.917C720.319 338.904 721.239 343.504 721.546 348.717C721.853 353.624 722.006 358.99 722.006 364.817ZM790.086 479.817C781.193 479.817 772.606 481.35 764.326 484.417C756.353 487.177 749.146 491.624 742.706 497.757C736.573 503.89 731.666 511.71 727.986 521.217C724.306 530.417 722.466 541.61 722.466 554.797C722.466 578.104 728.139 595.89 739.486 608.157C751.139 620.117 766.626 626.097 785.946 626.097C793.919 626.097 802.046 625.024 810.326 622.877C818.606 620.424 826.119 616.437 832.866 610.917C839.613 605.09 845.133 597.424 849.426 587.917C853.719 578.41 855.866 566.604 855.866 552.497C855.866 539.924 854.026 529.037 850.346 519.837C846.973 510.637 842.219 503.124 836.086 497.297C829.953 491.164 822.899 486.717 814.926 483.957C806.953 481.197 798.673 479.817 790.086 479.817Z" fill="white"/>
</g>
<g clip-path="url(#clip2_12_784)">
<g filter="url(#filter1_d_12_784)">
<path fill-rule="evenodd" clip-rule="evenodd" d="M120 0H311V535.207C311 541.168 306.177 546 300.227 546C297.575 546 295.016 545.02 293.041 543.248L222.686 480.151C218.595 476.482 212.405 476.482 208.314 480.151L137.959 543.248C133.526 547.224 126.715 546.847 122.747 542.406C120.978 540.427 120 537.864 120 535.207V0Z" fill="url(#paint0_linear_12_784)"/>
</g>
<path d="M235.172 310.539C239.363 310.539 243.045 311.332 246.217 312.918C249.389 314.504 252.013 316.637 254.09 319.318C256.582 322.49 258.357 325.983 259.414 329.797C260.471 333.573 261 338.387 261 344.24V377.998H176.662V348.205C176.662 342.012 176.908 337.33 177.398 334.158C177.852 330.949 178.833 327.947 180.344 325.152C181.967 322.132 184.139 319.885 186.857 318.412C189.576 316.902 192.71 316.146 196.26 316.146C200.376 316.146 204.038 317.185 207.248 319.262C210.458 321.301 212.818 324.133 214.328 327.758H214.781C215.876 322.547 218.123 318.374 221.521 315.24C224.882 312.106 229.432 310.539 235.172 310.539ZM200.508 337.67C199.148 337.67 197.751 338.029 196.316 338.746C194.882 339.426 193.843 340.502 193.201 341.975C192.597 343.372 192.276 345.033 192.238 346.959C192.163 348.847 192.125 351.679 192.125 355.455V356.928H209.967V354.266C209.967 350.641 209.929 348.111 209.854 346.676C209.778 345.203 209.382 343.693 208.664 342.145C207.871 340.445 206.776 339.275 205.379 338.633C203.982 337.991 202.358 337.67 200.508 337.67ZM234.775 332.346C232.17 332.346 230.131 332.874 228.658 333.932C227.186 334.989 226.072 336.575 225.316 338.689C224.826 339.973 224.561 341.748 224.523 344.014C224.448 346.242 224.41 349.243 224.41 353.02V356.928H245.537V355.795C245.537 350.282 245.499 346.468 245.424 344.354C245.348 342.239 244.839 340.087 243.895 337.896C243.064 335.971 241.855 334.574 240.27 333.705C238.646 332.799 236.814 332.346 234.775 332.346ZM261 298.361H176.662L176.662 241.324H192.748L192.748 277.291H207.531L207.531 244.156H223.617V277.291H244.914V241.324L261 241.324V298.361ZM261 210.795L192.748 210.795V235.717H176.662V164.689H192.748V189.611L261 189.611V210.795ZM261 165.029L176.662 136.539V113.43L261 84.9395V106.746L243.781 112.014L243.781 138.521L261 143.789V165.029ZM228.488 116.658L200.678 125.268L228.488 133.877L228.488 116.658Z" fill="white"/>
</g>
</g>
<defs>
<filter id="filter0_d_12_784" x="346.847" y="272.037" width="605.479" height="555.4" filterUnits="userSpaceOnUse" color-interpolation-filters="sRGB">
<feFlood flood-opacity="0" result="BackgroundImageFix"/>
<feColorMatrix in="SourceAlpha" type="matrix" values="0 0 0 0 0 0 0 0 0 0 0 0 0 0 0 0 0 0 127 0" result="hardAlpha"/>
<feOffset/>
<feGaussianBlur stdDeviation="25"/>
<feComposite in2="hardAlpha" operator="out"/>
<feColorMatrix type="matrix" values="0 0 0 0 0 0 0 0 0 0 0 0 0 0 0 0 0 0 0.5 0"/>
<feBlend mode="normal" in2="BackgroundImageFix" result="effect1_dropShadow_12_784"/>
<feBlend mode="normal" in="SourceGraphic" in2="effect1_dropShadow_12_784" result="shape"/>
</filter>
<filter id="filter1_d_12_784" x="70" y="-46" width="291" height="646" filterUnits="userSpaceOnUse" color-interpolation-filters="sRGB">
<feFlood flood-opacity="0" result="BackgroundImageFix"/>
<feColorMatrix in="SourceAlpha" type="matrix" values="0 0 0 0 0 0 0 0 0 0 0 0 0 0 0 0 0 0 127 0" result="hardAlpha"/>
<feOffset dy="4"/>
<feGaussianBlur stdDeviation="25"/>
<feComposite in2="hardAlpha" operator="out"/>
<feColorMatrix type="matrix" values="0 0 0 0 0 0 0 0 0 0 0 0 0 0 0 0 0 0 0.5 0"/>
<feBlend mode="normal" in2="BackgroundImageFix" result="effect1_dropShadow_12_784"/>
<feBlend mode="normal" in="SourceGraphic" in2="effect1_dropShadow_12_784" result="shape"/>
</filter>
<linearGradient id="paint0_linear_12_784" x1="215.5" y1="0" x2="215.5" y2="412.394" gradientUnits="userSpaceOnUse">
<stop stop-color="#F74B4B"/>
<stop offset="1" stop-color="#DE4D4D"/>
</linearGradient>
<clipPath id="clip0_12_784">
<rect width="1024" height="1024" rx="200" fill="white"/>
</clipPath>
<clipPath id="clip1_12_784">
<rect width="1024" height="1024" fill="white"/>
</clipPath>
<clipPath id="clip2_12_784">
<rect width="1024" height="1024" fill="white"/>
</clipPath>
</defs>
</svg>
