<svg version="1" xmlns="http://www.w3.org/2000/svg" width="1333.333" height="1333.333" viewBox="0 0 1000.000000 1000.000000"><path d="M88 .7C74.6 2.2 55.5 9.5 42.9 18.1 20.8 33.1 4.6 59.8 1 87.1c-.8 6-1 127.3-.8 418.4l.3 410 2.3 8.5c4.6 17.2 14.4 34.3 26.7 46.5 12.4 12.5 29.7 22.3 47.1 26.7l8.9 2.3h829l8.9-2.3c36.4-9.2 63.8-36.6 73.9-73.7l2.2-8 .3-410c.2-291.1 0-412.4-.8-418.4-3.6-27.3-19.8-54-41.9-69-8.6-5.9-22.8-12.4-33.1-15.3L915.5.5l-412-.1C276.9.4 89.9.5 88 .7zm606 128.7c21 4.5 34 15.1 41.1 33.6 1.2 2.9 1.4 52.4 1.4 295s-.2 292.1-1.4 295c-6.1 15.9-17.8 27.1-32.9 31.5-3.1 1-7 2.1-8.6 2.6-1.7.5-82.9.9-191 .9-198.8 0-193.9.1-206.9-4.4-8.8-3.1-17.2-9.3-23.1-17-3.3-4.3-4.4-6.5-7.5-13.9-1.6-4-1.6-585.4 0-589.4 3-7.4 5.7-12 9.8-16.5 4.6-5.1 15-12.8 17.3-12.8.8 0 1.8-.4 2.4-.8 1.1-1 7-2.8 13.4-4.1 2.6-.5 83.6-.9 192-1 157-.1 188.6.1 194 1.3z"/><path d="M653 178.3c-11.8.4-39 .6-60.3.3l-38.8-.4.3 12.9.3 13 47.4-.1c42.2 0 47.3.1 46.7 1.5-.6 1.6-8.3 13.2-10 15.2-6.3 6.9-21.3 21.3-22.3 21.3-.7 0-3.9-2.5-7-5.6-3.2-3.1-8.3-7.7-11.3-10.3-3-2.5-6.1-5.2-6.8-5.9-1.9-1.7-2.1-1.6-7.7 2.3-2.8 1.9-7.3 5.1-10.2 7.1l-5.2 3.6 5.7 5.1c10.7 9.6 21.4 20.8 30.2 31.7 2.5 3 4.7 5.7 5 6 1.6 1.5 7.4 9.7 13 18 3.4 5.2 6.4 9.7 6.6 9.9.3.3 12.8-8.8 18-13.3 1-.8 2.7-2.1 3.7-2.9 1.7-1.2 1.5-1.7-3.5-8.2-2.9-3.9-5.9-7.6-6.6-8.3-.7-.8-2.4-2.9-3.8-4.7l-2.5-3.4 11.9-11.8c14.4-14.3 17.4-18 28.7-35.3 4.9-7.4 10.1-15.4 11.7-17.8 1.5-2.3 2.8-4.6 2.8-5-.1-.4-3.3-4.1-7.3-8.3l-7.2-7.5-21.5.9zM573.4 321.8c-1.8 1.2-16.4 19.9-16.4 20.9 0 .6.8 1.3 1.8 1.6 5.5 1.9 23.1 14.8 32.2 23.8 3.3 3.2 6.6 5.9 7.3 5.9.7 0 2.1-1.3 3-3 1-1.6 2.3-3.5 3-4.2 1.9-2 11.7-15.2 11.7-15.9 0-.3-2.7-2.7-6.1-5.5-3.3-2.7-6.6-5.4-7.2-6-2-1.7-19.3-13.2-24-15.8-2.4-1.4-4.8-2.1-5.3-1.8zM663.1 341.2C645 385 619.7 405.5 572 414.9c-3 .6-7.3 1.2-9.5 1.4-4.8.2-4.8.8-.5 16.2.6 2.2 1.6 5.9 2.2 8.3.5 2.4 1.5 4.5 2.2 4.8.7.3 3.9-.3 7.2-1.2 5.6-1.5 8.6-2.3 17.2-4.3 4.2-1 13.6-3.9 17-5.2 1.2-.5 3.2-1.3 4.5-1.8 7.5-2.9 22.9-11 23.5-12.4.2-.4.8-.7 1.3-.7 3 0 22.3-17.4 28.4-25.5 1.7-2.2 3.6-4.6 4.2-5.3 2.6-2.7 17.3-29.2 17.3-31.1 0-.4-2.4-2.5-5.2-4.6-2.9-2.2-7.8-6.5-10.9-9.7-3.1-3.2-5.8-5.8-6-5.8-.2 0-1 1.5-1.8 3.2zM678 455.1c-9.9 4.2-9.4 3.8-7.6 5.8.9 1 3.8 6 6.4 11.2 2.7 5.2 5.3 9.3 5.8 9.2 2.7-.6 11.6-4.1 12.4-4.9.9-.9-2.2-7.9-7.6-16.9-3.2-5.3-5.1-6.2-9.4-4.4zM598.9 458.7c0 .5 0 3.4.1 6.7.1 3.2-.2 9.2-.6 13.3l-.7 7.5-18.6-.5c-10.2-.2-19.6-.8-20.8-1.2l-2.3-.7V510h20c11 0 20 .3 20 .6 0 .4-.5 2.5-1.1 4.8-.6 2.2-1.5 5.9-2.1 8.1-1 3.9-1.8 6.1-4.2 11.5-5.6 13-23.1 30.3-36.3 36.1-1.8.8-3.3 1.8-3.3 2.3 0 .5 2.9 4 6.5 7.7 3.6 3.8 7.7 8.7 9.1 10.9 1.5 2.2 3.1 4 3.6 4 2.9 0 23-16.2 29.4-23.7 9.9-11.8 17.7-26.3 21.2-39.8.6-2.2 1.5-5.9 2.1-8.1.6-2.3 1.1-5.4 1.1-7 0-1.6.3-3.9.6-5.2.6-2.2.8-2.2 15.2-2l14.6.3-.2 11.5c-.4 21.7-3.5 40.7-7.2 44.5-1.8 1.7-3.2 2-9.3 1.8-4-.1-9.1-.8-11.5-1.4-2.3-.6-4.5-.9-4.8-.6-.4.3.1 3 .9 5.9.9 2.9 2.1 8.7 2.8 12.9l1.1 7.7 4.6.6c7.4 1 22.2.7 26.6-.6 8.9-2.5 13.9-7.8 17.4-18.3 2.2-6.6 5.2-31.5 5.3-44.2 0-4.3.6-13.7 1.4-20.8l1.3-13-4.6-4.7c-4.2-4.3-4.5-4.9-3.3-7 1-2.1.7-3.3-2.9-10.3-5.2-10.1-8.8-14.9-10.3-13.7-.7.5-3.8 1.7-6.9 2.6-3.2 1-5.8 2.1-5.8 2.4 0 .4 1.4 2.7 3 5.2 4.4 6.5 7.3 13.1 6.3 14.1-.5.5-7.4.8-15.4.7l-14.4-.3.1-13.1.1-13.2-3.6-.6c-5.2-.8-24.1-.7-24.2.1z"/></svg>